<svg width="26" height="26" viewBox="0 0 26 26" fill="none" xmlns="http://www.w3.org/2000/svg">
<path d="M1.10614 7.37168V3.65487C1.10614 2.9115 1.53092 2.38053 2.16809 2.16814C3.65481 1.63717 6.84065 1 12.9999 1C19.1592 1 22.3451 1.63717 23.8318 2.16814C24.469 2.38053 24.8938 3.0177 24.8938 3.65487V7.37168" stroke="white" stroke-width="1.5" stroke-linecap="round" stroke-linejoin="round"/>
<path d="M5.88496 7.37168C5.88496 6.09734 4.82301 4.9292 3.44248 4.9292C2.06195 4.9292 1 5.99115 1 7.37168V8.9646C1 9.81416 1.74336 10.5575 2.59292 10.5575H4.18584C5.0354 10.5575 5.77876 9.81416 5.77876 8.9646V7.37168H5.88496Z" stroke="white" stroke-width="1.5" stroke-linecap="round" stroke-linejoin="round"/>
<path d="M10.6637 7.37168C10.6637 6.09734 9.60176 4.9292 8.22123 4.9292C6.84069 4.9292 5.77875 5.99115 5.77875 7.37168V8.9646C5.77875 9.81416 6.52211 10.5575 7.37167 10.5575H8.96459C9.81415 10.5575 10.5575 9.81416 10.5575 8.9646V7.37168H10.6637Z" stroke="white" stroke-width="1.5" stroke-linecap="round" stroke-linejoin="round"/>
<path d="M15.4425 7.37168C15.4425 6.09734 14.3805 4.9292 13 4.9292C11.6194 4.9292 10.5575 5.99115 10.5575 7.37168V8.9646C10.5575 9.81416 11.3009 10.5575 12.1504 10.5575H13.7433C14.5929 10.5575 15.3363 9.81416 15.3363 8.9646V7.37168H15.4425Z" stroke="white" stroke-width="1.5" stroke-linecap="round" stroke-linejoin="round"/>
<path d="M20.2213 7.37168C20.2213 6.09734 19.1593 4.9292 17.7788 4.9292C16.3983 4.9292 15.3363 5.99115 15.3363 7.37168V8.9646C15.3363 9.81416 16.0797 10.5575 16.9292 10.5575H18.5221C19.3717 10.5575 20.1151 9.81416 20.1151 8.9646V7.37168H20.2213Z" stroke="white" stroke-width="1.5" stroke-linecap="round" stroke-linejoin="round"/>
<path d="M24.9999 7.37168C24.9999 6.09734 23.938 4.9292 22.5575 4.9292C21.1769 4.9292 20.115 5.99115 20.115 7.37168V8.9646C20.115 9.81416 20.8584 10.5575 21.7079 10.5575H23.3008C24.1504 10.5575 24.8938 9.81416 24.8938 8.9646V7.37168H24.9999Z" stroke="white" stroke-width="1.5" stroke-linecap="round" stroke-linejoin="round"/>
<path d="M1.10614 18.5221V22.2389C1.10614 22.9823 1.53092 23.5132 2.16809 23.7256C3.65481 24.1504 6.84065 24.8938 12.9999 24.8938C19.1592 24.8938 22.3451 24.2566 23.8318 23.7256C24.469 23.5132 24.8938 22.8761 24.8938 22.2389V18.5221" stroke="white" stroke-width="1.5" stroke-linecap="round" stroke-linejoin="round"/>
<path d="M5.88496 18.5221C5.88496 19.7965 4.82301 20.9646 3.44248 20.9646C2.06195 20.9646 1 19.9027 1 18.5221V16.9292C1 16.0797 1.74336 15.3363 2.59292 15.3363H4.18584C4.61062 15.3363 5.0354 15.5487 5.35398 15.7611C5.67257 15.9735 5.77876 16.5044 5.77876 16.9292V18.5221H5.88496Z" stroke="white" stroke-width="1.5" stroke-linecap="round" stroke-linejoin="round"/>
<path d="M10.6637 18.5221C10.6637 19.7965 9.60176 20.9646 8.22123 20.9646C6.84069 20.9646 5.77875 19.9027 5.77875 18.5221V16.9292C5.77875 16.0797 6.52211 15.3363 7.37167 15.3363H8.96459C9.81415 15.3363 10.5575 16.0797 10.5575 16.9292V18.5221H10.6637Z" stroke="white" stroke-width="1.5" stroke-linecap="round" stroke-linejoin="round"/>
<path d="M15.4425 18.5221C15.4425 19.7965 14.3805 20.9646 13 20.9646C11.6194 20.9646 10.5575 19.9027 10.5575 18.5221V16.9292C10.5575 16.0797 11.3009 15.3363 12.1504 15.3363H13.7433C14.5929 15.3363 15.3363 16.0797 15.3363 16.9292V18.5221H15.4425Z" stroke="white" stroke-width="1.5" stroke-linecap="round" stroke-linejoin="round"/>
<path d="M20.2213 18.5221C20.2213 19.7965 19.1593 20.9646 17.7788 20.9646C16.3983 20.9646 15.3363 19.9027 15.3363 18.5221V16.9292C15.3363 16.0797 16.0797 15.3363 16.9292 15.3363H18.5221C19.3717 15.3363 20.1151 16.0797 20.1151 16.9292V18.5221H20.2213Z" stroke="white" stroke-width="1.5" stroke-linecap="round" stroke-linejoin="round"/>
<path d="M24.9999 18.5221C24.9999 19.7965 23.938 20.9646 22.5575 20.9646C21.1769 20.9646 20.115 19.9027 20.115 18.5221V16.9292C20.115 16.0797 20.8584 15.3363 21.7079 15.3363H23.3008C24.1504 15.3363 24.8938 16.0797 24.8938 16.9292V18.5221H24.9999Z" stroke="white" stroke-width="1.5" stroke-linecap="round" stroke-linejoin="round"/>
</svg>
