<svg width="34" height="16" viewBox="0 0 34 16" fill="none" xmlns="http://www.w3.org/2000/svg">
<path d="M22.9849 7.96152e-08C20.7302 7.96152e-08 18.5704 0.489216 17 1.88893C15.4296 0.489747 13.2693 7.96152e-08 11.0151 7.96152e-08C5.7628 -0.000531171 0 2.65778 0 2.65778C0 2.65778 2.48871 15.7715 17 15.9479C31.5118 15.7715 34 2.65778 34 2.65778C34 2.65778 28.2372 7.96152e-08 22.9849 7.96152e-08ZM30.4576 4.24947C30.9256 4.1478 31.3821 4.04766 31.8231 3.95011C31.3728 4.30552 30.9162 4.64944 30.4576 4.98094V4.24947ZM11.0151 1.41625C13.2216 1.41631 14.918 1.93149 16.0574 2.94678L17 3.78669L17.9426 2.94678C19.0819 1.93149 20.7784 1.41631 22.9849 1.41631C25.5954 1.41631 28.3866 2.13589 30.4224 2.80719C25.5436 3.87175 19.305 5.13088 17.0877 5.13088C17.0576 5.13088 17.0285 5.13035 17 5.12982C14.8735 5.09555 8.57677 3.83855 3.64092 2.78435C5.6689 2.11975 8.42582 1.41625 11.0151 1.41625ZM29.0424 4.55447V5.95837C28.5091 6.30853 27.9758 6.6401 27.4445 6.94822C27.2681 7.05095 27.0918 7.15056 26.9174 7.24811V4.99913C27.4881 4.88186 28.0815 4.75788 28.6979 4.62765C28.812 4.60328 28.9272 4.57891 29.0424 4.55447ZM25.5 5.28554V7.98954C24.5434 8.4575 23.5949 8.85335 22.6674 9.17396V5.82403C23.5286 5.6689 24.4728 5.48941 25.5 5.28554ZM21.25 6.06894V9.60872C20.035 9.93398 18.8495 10.1254 17.7082 10.182V6.52495C18.5548 6.47102 19.7372 6.31849 21.25 6.06894ZM16.2918 6.50934V10.1819C15.1505 10.1254 13.965 9.93398 12.75 9.60865V6.02066C14.268 6.27745 15.4509 6.44035 16.2918 6.50934ZM11.3332 5.77163V9.17389C10.4045 8.85328 9.45718 8.45744 8.5 7.98947V5.23315C9.52777 5.43602 10.473 5.61604 11.3332 5.77163ZM7.08316 4.94939V7.24818C6.90778 7.15063 6.7314 7.05102 6.55556 6.94829C6.02484 6.64009 5.49153 6.3086 4.95816 5.95844V4.51098C5.1091 4.54265 5.26011 4.57426 5.41158 4.60594C5.98852 4.7258 6.54566 4.84042 7.08316 4.94939ZM3.54184 4.21162V4.98047C3.06505 4.63595 2.59091 4.27749 2.12188 3.90655C2.57948 4.00563 3.05522 4.10782 3.54184 4.21162ZM29.8019 8.39581C28.509 10.1461 26.9257 11.5464 25.0933 12.557C22.7898 13.827 20.0671 14.4911 17 14.5306C13.9599 14.4911 11.2569 13.8385 8.96637 12.5892C7.1402 11.5942 5.55787 10.2121 4.26348 8.48347C3.68448 7.70997 3.21652 6.93587 2.84352 6.22512C6.95499 9.17296 11.977 11.617 17 11.617C22.0246 11.617 27.0481 9.17137 31.1611 6.22253C30.7959 6.91568 30.3497 7.65438 29.8019 8.39581Z" fill="white"/>
</svg>
