<svg width="28" height="28" viewBox="0 0 28 28" fill="none" xmlns="http://www.w3.org/2000/svg">
<path d="M18.1336 1.01215C16.1787 1.01215 14.3389 1.81709 13.074 3.31196C11.1192 1.12714 8.01442 0.437201 5.36964 1.47212C2.72486 2.50703 1 5.03682 1 7.91158C1.22998 10.5564 2.1499 13.2011 3.87476 15.271C4.21973 15.7309 4.33472 16.4209 4.10474 16.9958C3.29981 18.7207 2.83985 20.6755 2.83985 22.6304V24.8152C2.95484 26.0801 3.98975 27 5.25465 27C6.51954 27 7.55446 26.0801 7.55446 24.8152C7.66945 22.0554 9.96926 19.9856 12.614 20.1006H13.534C16.2937 19.9856 18.5935 22.1704 18.7085 24.8152C18.7085 26.0801 19.7434 27 21.0083 27C22.2732 27 23.3082 26.0801 23.4231 24.8152V22.6304" stroke="white" stroke-width="1.5" stroke-linecap="round" stroke-linejoin="round"/>
<path d="M19.9734 18.2607C23.7681 18.2607 26.8729 15.156 26.8729 11.3613C26.8729 7.5666 23.7681 4.46185 19.9734 4.46185C16.1787 4.46185 13.074 7.5666 13.074 11.3613C13.074 15.156 16.0638 18.2607 19.9734 18.2607Z" stroke="white" stroke-width="1.5" stroke-linecap="round" stroke-linejoin="round"/>
<path d="M22.9632 9.29144L19.6285 13.7761C19.5135 14.0061 19.2835 14.121 19.0535 14.121C18.8235 14.121 18.4785 14.0061 18.3636 13.8911L16.6387 12.1662" stroke="white" stroke-width="1.5" stroke-linecap="round" stroke-linejoin="round"/>
</svg>
