<svg width="21" height="28" viewBox="0 0 21 28" fill="none" xmlns="http://www.w3.org/2000/svg">
<path d="M10.4473 14.5342V27V14.5342ZM6.35144 25.9315H14.3651H6.35144ZM6.35144 20.589H14.3651H6.35144ZM17.2145 14.3562C17.0364 13.8219 17.0364 13.1096 17.3925 12.5753C18.6391 10.9726 19.5295 8.83562 19.7076 6.69863C19.8857 3.67123 17.3925 1 14.3651 1C12.7624 1 11.3377 1.71233 10.4473 2.9589C9.37884 1.71233 7.95418 1.17808 6.52953 1C3.32405 1.17808 0.830896 3.67123 1.00898 6.69863C1.18706 8.83562 1.89939 10.9726 3.14596 12.9315C3.50213 13.2877 3.50213 13.8219 3.32405 14.3562H17.2145Z" stroke="white" stroke-width="1.5" stroke-linecap="round" stroke-linejoin="round"/>
</svg>
