<svg width="29" height="29" viewBox="0 0 29 29" fill="none" xmlns="http://www.w3.org/2000/svg">
<path d="M6.02176 10.5434H16.7609" stroke="white" stroke-width="1.5" stroke-linecap="round" stroke-linejoin="round"/>
<path d="M6.02176 13.9348H12.8044" stroke="white" stroke-width="1.5" stroke-linecap="round" stroke-linejoin="round"/>
<path d="M6.02176 7.15222H13.9348" stroke="white" stroke-width="1.5" stroke-linecap="round" stroke-linejoin="round"/>
<path d="M6.02176 17.326H10.5435" stroke="white" stroke-width="1.5" stroke-linecap="round" stroke-linejoin="round"/>
<path d="M6.02176 20.7174H10.5435" stroke="white" stroke-width="1.5" stroke-linecap="round" stroke-linejoin="round"/>
<path d="M12.8043 27.5H2.63043C1.95217 27.5 1.5 27.0478 1.5 26.3696V2.63043C1.5 1.95217 1.95217 1.5 2.63043 1.5H17.6652C18.0043 1.5 18.2304 1.61304 18.4565 1.83913L22.6391 6.02174C22.8652 6.24783 22.9783 6.47391 22.9783 6.81304V10.5435" stroke="white" stroke-width="1.5" stroke-linecap="round" stroke-linejoin="round"/>
<path d="M20.7174 27.5C24.4478 27.5 27.5 24.4479 27.5 20.7174C27.5 16.987 24.4478 13.9348 20.7174 13.9348C16.9869 13.9348 13.9348 16.987 13.9348 20.7174C13.9348 24.4479 16.9869 27.5 20.7174 27.5Z" stroke="white" stroke-width="1.5" stroke-linecap="round" stroke-linejoin="round"/>
<path d="M20.7174 17.326V24.1086" stroke="white" stroke-width="1.5" stroke-linecap="round" stroke-linejoin="round"/>
<path d="M20.7174 24.1085L18.1174 21.5085" stroke="white" stroke-width="1.5" stroke-linecap="round" stroke-linejoin="round"/>
<path d="M20.7174 24.1085L23.3174 21.5085" stroke="white" stroke-width="1.5" stroke-linecap="round" stroke-linejoin="round"/>
</svg>
