<svg width="38" height="38" viewBox="0 0 38 38" fill="none" xmlns="http://www.w3.org/2000/svg">
<path d="M1 8.19999C1 6.91999 2.12 5.79999 3.4 5.79999H34.6C35.88 5.79999 37 6.91999 37 8.19999V34.6C37 35.88 35.88 37 34.6 37H3.4C2.12 37 1 35.88 1 34.6V8.19999V8.19999Z" stroke="url(#paint0_linear)" stroke-width="2" stroke-linecap="round" stroke-linejoin="round"/>
<path d="M1 15.4H37" stroke="url(#paint1_linear)" stroke-width="2" stroke-linecap="round" stroke-linejoin="round"/>
<path d="M10.6 9.32V1" stroke="url(#paint2_linear)" stroke-width="2" stroke-linecap="round" stroke-linejoin="round"/>
<path d="M27.4 9.32V1" stroke="url(#paint3_linear)" stroke-width="2" stroke-linecap="round" stroke-linejoin="round"/>
<path d="M8.68004 21.32C8.36004 21.32 8.04004 21.64 8.04004 21.96C8.04004 22.28 8.36004 22.6 8.68004 22.6C9.00004 22.6 9.32004 22.28 9.32004 21.96C9.32004 21.64 9.00004 21.32 8.68004 21.32Z" stroke="url(#paint4_linear)" stroke-width="2" stroke-linecap="round" stroke-linejoin="round"/>
<path d="M8.68004 29.8C8.36004 29.8 8.04004 30.12 8.04004 30.44C8.04004 30.76 8.36004 31.08 8.68004 31.08C9.00004 31.08 9.32004 30.6 9.32004 30.28C9.32004 29.96 9.00004 29.8 8.68004 29.8Z" stroke="url(#paint5_linear)" stroke-width="2" stroke-linecap="round" stroke-linejoin="round"/>
<path d="M18.92 21.32C18.6 21.32 18.28 21.64 18.28 21.96C18.28 22.28 18.6 22.6 18.92 22.6C19.24 22.6 19.56 22.28 19.56 21.96C19.56 21.64 19.24 21.32 18.92 21.32Z" stroke="url(#paint6_linear)" stroke-width="2" stroke-linecap="round" stroke-linejoin="round"/>
<path d="M18.92 29.8C18.6 29.8 18.28 30.12 18.28 30.44C18.28 30.76 18.6 31.08 18.92 31.08C19.24 31.08 19.56 30.76 19.56 30.44C19.56 29.96 19.24 29.8 18.92 29.8Z" stroke="url(#paint7_linear)" stroke-width="2" stroke-linecap="round" stroke-linejoin="round"/>
<path d="M29.16 21.32C28.84 21.32 28.52 21.64 28.52 21.96C28.52 22.28 28.84 22.6 29.16 22.6C29.48 22.6 29.8 22.28 29.8 21.96C29.8 21.64 29.48 21.32 29.16 21.32Z" stroke="url(#paint8_linear)" stroke-width="2" stroke-linecap="round" stroke-linejoin="round"/>
<path d="M29.16 29.8C28.84 29.8 28.52 30.12 28.52 30.44C28.52 30.76 28.84 31.08 29.16 31.08C29.48 31.08 29.8 30.76 29.8 30.44C29.8 29.96 29.48 29.8 29.16 29.8Z" stroke="url(#paint9_linear)" stroke-width="2" stroke-linecap="round" stroke-linejoin="round"/>
<defs>
<linearGradient id="paint0_linear" x1="19" y1="5.79999" x2="19" y2="37" gradientUnits="userSpaceOnUse">
<stop stop-color="#4285FE"/>
<stop offset="1" stop-color="#1761E6"/>
</linearGradient>
<linearGradient id="paint1_linear" x1="19" y1="15.4" x2="19" y2="16.4" gradientUnits="userSpaceOnUse">
<stop stop-color="#4285FE"/>
<stop offset="1" stop-color="#1761E6"/>
</linearGradient>
<linearGradient id="paint2_linear" x1="11.1" y1="1" x2="11.1" y2="9.32" gradientUnits="userSpaceOnUse">
<stop stop-color="#4285FE"/>
<stop offset="1" stop-color="#1761E6"/>
</linearGradient>
<linearGradient id="paint3_linear" x1="27.9" y1="1" x2="27.9" y2="9.32" gradientUnits="userSpaceOnUse">
<stop stop-color="#4285FE"/>
<stop offset="1" stop-color="#1761E6"/>
</linearGradient>
<linearGradient id="paint4_linear" x1="8.68004" y1="21.32" x2="8.68004" y2="22.6" gradientUnits="userSpaceOnUse">
<stop stop-color="#4285FE"/>
<stop offset="1" stop-color="#1761E6"/>
</linearGradient>
<linearGradient id="paint5_linear" x1="8.68004" y1="29.8" x2="8.68004" y2="31.08" gradientUnits="userSpaceOnUse">
<stop stop-color="#4285FE"/>
<stop offset="1" stop-color="#1761E6"/>
</linearGradient>
<linearGradient id="paint6_linear" x1="18.92" y1="21.32" x2="18.92" y2="22.6" gradientUnits="userSpaceOnUse">
<stop stop-color="#4285FE"/>
<stop offset="1" stop-color="#1761E6"/>
</linearGradient>
<linearGradient id="paint7_linear" x1="18.92" y1="29.8" x2="18.92" y2="31.08" gradientUnits="userSpaceOnUse">
<stop stop-color="#4285FE"/>
<stop offset="1" stop-color="#1761E6"/>
</linearGradient>
<linearGradient id="paint8_linear" x1="29.16" y1="21.32" x2="29.16" y2="22.6" gradientUnits="userSpaceOnUse">
<stop stop-color="#4285FE"/>
<stop offset="1" stop-color="#1761E6"/>
</linearGradient>
<linearGradient id="paint9_linear" x1="29.16" y1="29.8" x2="29.16" y2="31.08" gradientUnits="userSpaceOnUse">
<stop stop-color="#4285FE"/>
<stop offset="1" stop-color="#1761E6"/>
</linearGradient>
</defs>
</svg>
