<svg width="36" height="38" viewBox="0 0 36 38" fill="none" xmlns="http://www.w3.org/2000/svg">
<path d="M17.9599 16.52C20.6799 16.52 22.7599 14.44 22.7599 11.72C22.7599 9.00004 20.6799 6.92004 17.9599 6.92004C15.2399 6.92004 13.1599 9.00004 13.1599 11.72C13.1599 14.44 15.2399 16.52 17.9599 16.52Z" stroke="url(#paint0_linear)" stroke-width="2" stroke-linecap="round" stroke-linejoin="round"/>
<path d="M17.9601 1C23.8801 1 28.8401 5.8 28.8401 11.88C28.8401 17.16 20.6801 28.68 18.6001 31.56C18.4401 31.72 18.2801 31.88 18.1201 31.88C17.9601 31.88 17.8001 31.72 17.6401 31.56C15.2401 28.52 7.08008 17 7.08008 11.72C7.08008 5.8 11.8801 1 17.9601 1Z" stroke="url(#paint1_linear)" stroke-width="2" stroke-linecap="round" stroke-linejoin="round"/>
<path d="M27.4 28.2C31.72 29 34.6 30.44 34.6 32.2C34.6 34.92 27.08 37 17.8 37C8.52 37 1 34.92 1 32.2C1 30.6 3.88 29.16 8.2 28.2" stroke="url(#paint2_linear)" stroke-width="2" stroke-linecap="round" stroke-linejoin="round"/>
<defs>
<linearGradient id="paint0_linear" x1="17.9599" y1="6.92004" x2="17.9599" y2="16.52" gradientUnits="userSpaceOnUse">
<stop stop-color="#4285FE"/>
<stop offset="1" stop-color="#1761E6"/>
</linearGradient>
<linearGradient id="paint1_linear" x1="17.9601" y1="1" x2="17.9601" y2="31.88" gradientUnits="userSpaceOnUse">
<stop stop-color="#4285FE"/>
<stop offset="1" stop-color="#1761E6"/>
</linearGradient>
<linearGradient id="paint2_linear" x1="17.8" y1="28.2" x2="17.8" y2="37" gradientUnits="userSpaceOnUse">
<stop stop-color="#4285FE"/>
<stop offset="1" stop-color="#1761E6"/>
</linearGradient>
</defs>
</svg>
