<svg version="1.1" viewBox="0.0 0.0 100.0 100.0" fill="none" stroke="none" stroke-linecap="square" stroke-miterlimit="10" xmlns:xlink="http://www.w3.org/1999/xlink" xmlns="http://www.w3.org/2000/svg"><clipPath id="p.0"><path d="m0 0l100.0 0l0 100.0l-100.0 0l0 -100.0z" clip-rule="nonzero"/></clipPath><g clip-path="url(#p.0)"><path fill="#000000" fill-opacity="0.0" d="m0 0l100.0 0l0 100.0l-100.0 0z" fill-rule="evenodd"/><path fill="#253b8e" d="m0 47.11289l0 0c0 -0.79727554 0.64632106 -1.4435959 1.4435984 -1.4435959l97.11281 0c0.3828659 0 0.7500458 0.15209198 1.0207748 0.42281723c0.27072906 0.27072906 0.42282104 0.63791275 0.42282104 1.0207787l0 5.7742233c0 0.79727554 -0.64632416 1.4435959 -1.4435959 1.4435959l-97.11281 0c-0.79727733 0 -1.4435984 -0.64632034 -1.4435984 -1.4435959z" fill-rule="evenodd"/><path fill="#253b8e" d="m0 79.8268l0 0c0 -0.7972717 0.64632106 -1.4435959 1.4435984 -1.4435959l97.11281 0c0.3828659 0 0.7500458 0.15209198 1.0207748 0.42282104c0.27072906 0.27072906 0.42282104 0.63790894 0.42282104 1.0207748l0 5.7742233c0 0.79727936 -0.64632416 1.4435959 -1.4435959 1.4435959l-97.11281 0c-0.79727733 0 -1.4435984 -0.6463165 -1.4435984 -1.4435959z" fill-rule="evenodd"/><path fill="#253b8e" d="m0 14.398979l0 0c0 -0.79727745 0.64632106 -1.4435987 1.4435984 -1.4435987l97.11281 0c0.3828659 0 0.7500458 0.15209293 1.0207748 0.4228201c0.27072906 0.27072716 0.42282104 0.63791275 0.42282104 1.0207787l0 5.7742195c0 0.79727745 -0.64632416 1.4435997 -1.4435959 1.4435997l-97.11281 0c-0.79727733 0 -1.4435984 -0.64632225 -1.4435984 -1.4435997z" fill-rule="evenodd"/></g></svg>