<svg width="23" height="28" viewBox="0 0 23 28" fill="none" xmlns="http://www.w3.org/2000/svg">
<path d="M11.3919 8.80865C10.8125 8.80865 10.1173 8.69278 9.65386 8.46104C1.89067 3.8263 0.384379 11.7054 1.19546 16.5718C2.12241 22.0177 4.32391 26.5365 7.56823 27C7.91583 27 8.14757 27 8.49517 26.7683L10.6967 25.6096C11.1601 25.3778 11.7395 25.3778 12.203 25.6096L14.4045 26.7683C14.6362 26.8841 14.9838 27 15.3314 27C18.4599 26.5365 20.7772 22.0177 21.7042 16.5718C22.1677 13.9069 21.9359 10.4308 20.4296 8.46104" stroke="white" stroke-width="1.5" stroke-linecap="round" stroke-linejoin="round"/>
<path d="M18.9233 5.44846C18.1123 6.25954 17.0694 6.72301 15.9108 6.95475C15.5632 7.07062 15.0997 6.95475 14.7521 6.72301C14.5203 6.37541 14.4045 6.0278 14.5203 5.56433C14.7521 4.40564 15.2156 3.36283 16.0266 2.55175C16.8377 1.74067 17.8805 1.27719 19.0392 1.04546C19.3868 0.929587 19.8503 1.04546 20.082 1.27719C20.3138 1.6248 20.4296 1.9724 20.3138 2.43588C20.1979 3.59456 19.7344 4.63738 18.9233 5.44846Z" stroke="white" stroke-width="1.5" stroke-linecap="round" stroke-linejoin="round"/>
<path d="M11.3919 4.52155V8.92455" stroke="white" stroke-width="1.5" stroke-linecap="round" stroke-linejoin="round"/>
</svg>
