<svg width="24" height="28" viewBox="0 0 24 28" fill="none" xmlns="http://www.w3.org/2000/svg">
<path d="M17.4513 11.469C20.3274 11.469 22.6283 9.16809 22.6283 6.29198C22.6283 3.41588 20.3274 1.11499 17.4513 1.11499C14.5752 1.11499 12.2743 3.41588 12.2743 6.29198C12.2743 9.16809 14.5752 11.469 17.4513 11.469Z" stroke="white" stroke-width="1.5" stroke-linecap="round" stroke-linejoin="round"/>
<path d="M14 27V25.2743C14 23.3186 15.4956 21.823 17.4513 21.823C19.4071 21.823 20.9027 23.3186 20.9027 25.2743V27" stroke="white" stroke-width="1.5" stroke-linecap="round" stroke-linejoin="round"/>
<path d="M17.4513 21.823V11.469" stroke="white" stroke-width="1.5" stroke-linecap="round" stroke-linejoin="round"/>
<path d="M1.92036 27V25.2743C1.92036 23.3186 3.41594 21.823 5.37169 21.823C7.32744 21.823 8.82302 23.3186 8.82302 25.2743V27" stroke="white" stroke-width="1.5" stroke-linecap="round" stroke-linejoin="round"/>
<path d="M5.37168 21.823V12.2743C5.37168 11.8142 5.14159 11.2389 4.79646 10.8938L1.57522 8.24779C1.23009 7.90266 1 7.44248 1 6.9823C1 6.52212 1.11504 6.06195 1.46018 5.71681L5.48673 1" stroke="white" stroke-width="1.5" stroke-linecap="round" stroke-linejoin="round"/>
</svg>
