<svg width="38" height="38" viewBox="0 0 38 38" fill="none" xmlns="http://www.w3.org/2000/svg">
<path d="M23.8381 35.5935C27.3586 37.8331 31.9993 37.3532 34.8797 34.4738L36.1599 33.194C37.28 32.0742 37.28 30.1546 36.1599 29.0348L30.8791 23.7558C29.759 22.636 27.8387 22.636 26.7185 23.7558C26.2385 24.2357 25.4384 24.5556 24.6383 24.5556C23.8381 24.5556 23.038 24.2357 22.558 23.7558L14.2368 15.4373C13.1166 14.3175 13.1166 12.3979 14.2368 11.2781C14.7168 10.7982 15.0369 9.99832 15.0369 9.19847C15.0369 8.39862 14.8769 7.59877 14.2368 7.11886L9.11606 1.83984C7.83587 0.720052 6.07563 0.720052 4.79544 1.83984L3.67529 3.1196C0.634856 5.99907 0.154788 10.6382 2.3951 13.9976C8.15592 22.636 15.517 29.8346 23.8381 35.5935Z" stroke="url(#paint0_linear)" stroke-width="2" stroke-linecap="round" stroke-linejoin="round"/>
<defs>
<linearGradient id="paint0_linear" x1="19" y1="1" x2="19" y2="37" gradientUnits="userSpaceOnUse">
<stop stop-color="#4285FE"/>
<stop offset="1" stop-color="#1761E6"/>
</linearGradient>
</defs>
</svg>
