<svg width="34" height="30" viewBox="0 0 34 30" fill="none" xmlns="http://www.w3.org/2000/svg">
<path d="M20.6265 6.78345C19.4887 6.78345 18.2087 7.35233 17.4976 8.20566C16.7865 7.21011 15.5065 6.78345 14.3688 6.78345C13.5154 6.78345 7.39992 8.20566 11.8088 14.6056C12.0932 14.8901 12.0932 15.3167 11.951 15.7434C11.3821 16.8811 11.2399 18.0189 11.2399 19.2989V20.7211C11.2399 21.5744 11.8088 22.1433 12.6621 22.1433C13.5154 22.1433 14.0843 21.5744 14.0843 20.7211C13.9421 18.8722 15.3643 17.1656 17.3554 17.0234C18.3509 17.0234 19.3465 17.3078 20.0576 18.0189C20.7687 18.73 21.0531 19.7256 21.0531 20.7211C21.0531 21.5744 21.622 22.1433 22.4754 22.1433C23.3287 22.1433 23.8976 21.5744 23.8976 20.7211V19.2989C23.8976 18.0189 23.6131 16.5967 23.0442 15.4589C22.902 15.0323 22.902 14.6056 23.1865 14.3212C27.5953 8.06344 21.3376 6.78345 20.6265 6.78345Z" stroke="white" stroke-width="1.5" stroke-linecap="round" stroke-linejoin="round"/>
<path d="M25.4619 3.939C21.3375 0.667911 15.6486 0.0990264 10.8131 2.37456C5.97761 4.6501 2.99097 9.48562 2.99097 14.89V18.1611" stroke="white" stroke-width="1.5" stroke-linecap="round" stroke-linejoin="round"/>
<path d="M8.39563 25.8411C12.52 29.1122 18.2089 29.6811 23.0444 27.4056C27.7377 25.13 30.8666 20.2945 30.8666 14.8901V11.7612" stroke="white" stroke-width="1.5" stroke-linecap="round" stroke-linejoin="round"/>
<path d="M1 16.0277L3.13332 18.161L5.26663 16.0277" stroke="white" stroke-width="1.5" stroke-linecap="round" stroke-linejoin="round"/>
<path d="M33 13.8945L30.8667 11.7612L28.7334 13.8945" stroke="white" stroke-width="1.5" stroke-linecap="round" stroke-linejoin="round"/>
</svg>
