<svg width="28" height="28" viewBox="0 0 28 28" fill="none" xmlns="http://www.w3.org/2000/svg">
<path d="M25.8851 6.99479C26.8049 6.18999 27.1498 4.81032 26.8049 3.66059C26.46 2.51087 25.5402 1.47612 24.2755 1.1312C23.1258 0.786282 21.7461 1.1312 20.9413 2.05098L11.7435 11.2488C11.6285 11.4787 11.6285 11.7087 11.6285 11.9386C11.6285 12.1686 11.7435 12.3985 11.8585 12.5135L15.5376 16.1926C15.6526 16.3076 15.8825 16.4225 16.1125 16.4225C16.3424 16.4225 16.5724 16.3076 16.6873 16.1926L25.8851 6.99479Z" stroke="white" stroke-width="1.5" stroke-linecap="round" stroke-linejoin="round"/>
<path d="M1.97088 21.1364C1.0511 22.0562 0.706181 23.5508 1.28104 24.8155C1.85591 26.0802 3.1206 27 4.50027 27C5.87994 27 7.14464 26.1952 7.7195 24.8155C8.17939 23.5508 7.83447 22.0562 6.91469 21.1364L13.6981 14.353" stroke="white" stroke-width="1.5" stroke-linecap="round" stroke-linejoin="round"/>
<path d="M13.6981 9.40918L18.5269 14.238" stroke="white" stroke-width="1.5" stroke-linecap="round" stroke-linejoin="round"/>
</svg>
